<svg xmlns="http://www.w3.org/2000/svg" viewBox="0 0 640 360" role="img" aria-labelledby="title desc">
  <title id="title">dianzi-junshi project glyph</title>
  <desc id="desc">chat strategy skill themed SVG panel for the Shoal/Rat site.</desc>
  <rect width="640" height="360" rx="28" fill="#0d1117"/>
  <rect x="20" y="20" width="600" height="320" rx="22" fill="#161b22" stroke="#30363d" stroke-width="4"/>
  <rect x="20" y="20" width="600" height="44" rx="22" fill="#1e1e1e" stroke="#30363d" stroke-width="4"/>
  <circle cx="48" cy="42" r="7" fill="#f48771"/><circle cx="72" cy="42" r="7" fill="#dcdcaa"/><circle cx="96" cy="42" r="7" fill="#89d185"/>
  <text x="122" y="48" font-family="Cascadia Code, Consolas, monospace" font-size="16" font-weight="800" fill="#8b949e">~/projects/dianzi-junshi</text>
  <path d="M42 306 H598" stroke="#30363d" stroke-width="3" stroke-dasharray="8 10"/>
  
  <rect x="92" y="112" width="210" height="82" rx="24" fill="#0d1117" stroke="#c586c0" stroke-width="6"/>
  <rect x="248" y="191" width="264" height="84" rx="24" fill="#161b22" stroke="#4fc1ff" stroke-width="6"/>
  <path d="M145 151 H253 M300 230 H458 M300 250 H412" stroke="#30363d" stroke-width="7" stroke-linecap="round"/>
  <path d="M151 195 L125 231 L194 200" fill="#0d1117" stroke="#c586c0" stroke-width="6" stroke-linejoin="round"/>
  <path d="M450 190 L501 156 L479 201" fill="#161b22" stroke="#4fc1ff" stroke-width="6" stroke-linejoin="round"/>
  <path d="M105 267 H155 M105 287 H211 M105 307 H180" stroke="#c586c0" stroke-width="6" stroke-linecap="round"/>
  <text x="44" y="302" font-family="Cascadia Code, Consolas, monospace" font-size="20" font-weight="800" fill="#d4d4d4">dianzi junshi</text>
  <text x="596" y="322" text-anchor="end" font-family="Cascadia Code, Consolas, monospace" font-size="15" fill="#c586c0">Python / chat strategy skill</text>
</svg>