<svg xmlns="http://www.w3.org/2000/svg" viewBox="0 0 640 360" role="img" aria-labelledby="title desc">
  <title id="title">Econ_History_Research_Agent project glyph</title>
  <desc id="desc">paper pipeline themed SVG panel for the Shoal/Rat site.</desc>
  <rect width="640" height="360" rx="28" fill="#0d1117"/>
  <rect x="20" y="20" width="600" height="320" rx="22" fill="#161b22" stroke="#30363d" stroke-width="4"/>
  <rect x="20" y="20" width="600" height="44" rx="22" fill="#1e1e1e" stroke="#30363d" stroke-width="4"/>
  <circle cx="48" cy="42" r="7" fill="#f48771"/><circle cx="72" cy="42" r="7" fill="#dcdcaa"/><circle cx="96" cy="42" r="7" fill="#89d185"/>
  <text x="122" y="48" font-family="Cascadia Code, Consolas, monospace" font-size="16" font-weight="800" fill="#8b949e">~/projects/econ-history-research-agent</text>
  <path d="M42 306 H598" stroke="#30363d" stroke-width="3" stroke-dasharray="8 10"/>
  
  <rect x="106" y="100" width="166" height="176" rx="10" fill="#0d1117" stroke="#4fc1ff" stroke-width="5"/>
  <rect x="296" y="86" width="166" height="190" rx="10" fill="#161b22" stroke="#89d185" stroke-width="5"/>
  <path d="M130 138 H246 M130 168 H230 M130 198 H250 M320 127 H438 M320 157 H419 M320 187 H442 M320 217 H404" stroke="#30363d" stroke-width="7" stroke-linecap="round"/>
  <circle cx="502" cy="126" r="18" fill="#4fc1ff"/><circle cx="529" cy="196" r="18" fill="#89d185"/><circle cx="482" cy="257" r="18" fill="#c586c0"/>
  <path d="M502 144 L529 178 M520 209 L491 242 M462 228 L438 206" stroke="#30363d" stroke-width="5" stroke-linecap="round"/>
  <text x="44" y="302" font-family="Cascadia Code, Consolas, monospace" font-size="18" font-weight="800" fill="#d4d4d4">Econ History Research</text>
  <text x="44" y="324" font-family="Cascadia Code, Consolas, monospace" font-size="18" font-weight="800" fill="#d4d4d4">Agent</text>
  <text x="596" y="322" text-anchor="end" font-family="Cascadia Code, Consolas, monospace" font-size="15" fill="#4fc1ff">Python / paper pipeline</text>
</svg>