<svg xmlns="http://www.w3.org/2000/svg" viewBox="0 0 640 360" role="img" aria-labelledby="title desc">
  <title id="title">Horizon_FSD project glyph</title>
  <desc id="desc">self-driving RL themed SVG panel for the Shoal/Rat site.</desc>
  <rect width="640" height="360" rx="28" fill="#050608"/>
  <rect x="20" y="20" width="600" height="320" rx="22" fill="#08110c" stroke="#24352b" stroke-width="4"/>
  <rect x="20" y="20" width="600" height="44" rx="22" fill="#101018" stroke="#24352b" stroke-width="4"/>
  <circle cx="48" cy="42" r="7" fill="#ff5c57"/><circle cx="72" cy="42" r="7" fill="#ffd866"/><circle cx="96" cy="42" r="7" fill="#00ff66"/>
  <text x="122" y="48" font-family="Terminal, Fixedsys, Lucida Console, Cascadia Code, Consolas, monospace" font-size="16" font-weight="800" fill="#9db5a3">~/projects/horizon-fsd</text>
  <path d="M42 306 H598" stroke="#24352b" stroke-width="3" stroke-dasharray="8 10"/>
  
  <path d="M92 248 C148 188 214 286 276 204 S380 84 516 137" fill="none" stroke="#24352b" stroke-width="26" stroke-linecap="round"/>
  <path d="M92 248 C148 188 214 286 276 204 S380 84 516 137" fill="none" stroke="#00ff66" stroke-width="8" stroke-linecap="round" stroke-dasharray="18 16"/>
  <rect x="283" y="177" width="74" height="36" rx="12" fill="#161b22" stroke="#ffd866" stroke-width="5"/>
  <circle cx="303" cy="215" r="10" fill="#ffd866"/><circle cx="338" cy="215" r="10" fill="#ffd866"/>
  <path d="M90 113 H154 L174 92 L201 133 L232 101 L255 113 H328" fill="none" stroke="#c586c0" stroke-width="6" stroke-linecap="round"/>
  <text x="410" y="249" font-family="Terminal, Fixedsys, Lucida Console, Cascadia Code, Consolas, monospace" font-size="25" font-weight="800" fill="#00ff66">10Hz</text>
  <text x="44" y="302" font-family="Terminal, Fixedsys, Lucida Console, Cascadia Code, Consolas, monospace" font-size="20" font-weight="800" fill="#eafff1">Horizon FSD</text>
  <text x="596" y="322" text-anchor="end" font-family="Terminal, Fixedsys, Lucida Console, Cascadia Code, Consolas, monospace" font-size="15" fill="#00ff66">Python / self-driving RL</text>
</svg>