<svg xmlns="http://www.w3.org/2000/svg" viewBox="0 0 640 360" role="img" aria-labelledby="title desc">
  <title id="title">structural-io-research project glyph</title>
  <desc id="desc">IO methods skill themed SVG panel for the Shoal/Rat site.</desc>
  <rect width="640" height="360" rx="28" fill="#050608"/>
  <rect x="20" y="20" width="600" height="320" rx="22" fill="#08110c" stroke="#24352b" stroke-width="4"/>
  <rect x="20" y="20" width="600" height="44" rx="22" fill="#101018" stroke="#24352b" stroke-width="4"/>
  <circle cx="48" cy="42" r="7" fill="#ff5c57"/><circle cx="72" cy="42" r="7" fill="#ffd866"/><circle cx="96" cy="42" r="7" fill="#00ff66"/>
  <text x="122" y="48" font-family="Terminal, Fixedsys, Lucida Console, Cascadia Code, Consolas, monospace" font-size="16" font-weight="800" fill="#9db5a3">~/projects/structural-io-research</text>
  <path d="M42 306 H598" stroke="#24352b" stroke-width="3" stroke-dasharray="8 10"/>
  
  <path d="M100 258 H535 M105 258 V88" stroke="#24352b" stroke-width="5"/>
  <path d="M132 112 C238 128 291 207 398 238" fill="none" stroke="#00e5ff" stroke-width="8" stroke-linecap="round"/>
  <path d="M132 232 C251 210 344 153 493 107" fill="none" stroke="#00ff66" stroke-width="8" stroke-linecap="round"/>
  <rect x="381" y="148" width="104" height="54" rx="10" fill="#161b22" stroke="#c586c0" stroke-width="5"/>
  <text x="433" y="183" text-anchor="middle" font-family="Terminal, Fixedsys, Lucida Console, Cascadia Code, Consolas, monospace" font-size="24" font-weight="800" fill="#ff5af7">GMM</text>
  <text x="44" y="302" font-family="Terminal, Fixedsys, Lucida Console, Cascadia Code, Consolas, monospace" font-size="20" font-weight="800" fill="#eafff1">structural io research</text>
  <text x="596" y="322" text-anchor="end" font-family="Terminal, Fixedsys, Lucida Console, Cascadia Code, Consolas, monospace" font-size="15" fill="#00e5ff">Shell / IO methods skill</text>
</svg>